<mxfile host="app.diagrams.net" modified="2023-07-09T23:16:16.630Z" agent="Mozilla/5.0 (Windows NT 10.0; Win64; x64) AppleWebKit/537.36 (KHTML, like Gecko) Chrome/113.0.0.0 Safari/537.36 OPR/99.0.0.0 (Edition std-1)" version="21.6.1" etag="5qXoO4Hm6n2qHt1eXkgp" type="github">
  <diagram name="PÃ¡gina-1" id="6w8O0x2WFcKy1thIRcrT">
    <mxGraphModel>
      <root>
        <mxCell id="0" />
        <mxCell id="1" parent="0" />
      </root>
    </mxGraphModel>
  </diagram>
</mxfile>
